<?xml version="1.0" encoding="UTF-8" standalone="no"?>

<svg
   version="1.1"
   id="svg1"
   width="506.50931"
   height="569.94629"
   viewBox="0 0 506.5093 569.94629"
   xmlns:xlink="http://www.w3.org/1999/xlink"
   xmlns="http://www.w3.org/2000/svg"
   xmlns:svg="http://www.w3.org/2000/svg"
   shape-rendering="geometricPrecision">
  <defs
     id="defs1">
    <clipPath
       clipPathUnits="userSpaceOnUse"
       id="clipPath21">
      <path
         d="M 0,1200 H 2000 V 0 H 0 Z"
         transform="translate(-673.87432,-704.25842)"
         id="path21" />
    </clipPath>
    <clipPath
       clipPathUnits="userSpaceOnUse"
       id="clipPath23">
      <path
         d="M 0,1200 H 2000 V 0 H 0 Z"
         transform="translate(-735.76802,-576.21592)"
         id="path23" />
    </clipPath>
    <clipPath
       clipPathUnits="userSpaceOnUse"
       id="clipPath25">
      <path
         d="M 0,1200 H 2000 V 0 H 0 Z"
         transform="translate(-466.30451,-703.59782)"
         id="path25" />
    </clipPath>
    <clipPath
       clipPathUnits="userSpaceOnUse"
       id="clipPath27">
      <path
         d="M 0,1200 H 2000 V 0 H 0 Z"
         transform="translate(-695.28002,-473.92741)"
         id="path27" />
    </clipPath>
    <clipPath
       clipPathUnits="userSpaceOnUse"
       id="clipPath29">
      <path
         d="M 0,1200 H 2000 V 0 H 0 Z"
         transform="translate(-457.93881,-632.99062)"
         id="path29" />
    </clipPath>
    <clipPath
       clipPathUnits="userSpaceOnUse"
       id="clipPath31">
      <path
         d="M 0,1200 H 2000 V 0 H 0 Z"
         transform="translate(-466.30451,-703.59782)"
         id="path31" />
    </clipPath>
    <clipPath
       clipPathUnits="userSpaceOnUse"
       id="clipPath33">
      <path
         d="M 0,1200 H 2000 V 0 H 0 Z"
         transform="translate(-614.51722,-638.93302)"
         id="path33" />
    </clipPath>
  </defs>
  <g
     id="layer-MC0"
     transform="translate(-86.583657,-506.40649)">
    <path
       id="path20"
       d="M 0,0 C -1.568,1.568 -3.163,3.098 -4.787,4.61 -5.944,3.966 -7.185,3.35 -8.529,2.762 -9.658,2.277 -10.815,1.82 -11.981,1.4 c 1.885,-1.689 3.742,-3.425 5.552,-5.207 0.448,-0.429 0.886,-0.868 1.325,-1.306 2.221,-2.221 4.386,-4.498 6.476,-6.84 27.639,-30.784 44.453,-71.459 44.453,-116.089 0,-29.347 -7.259,-56.977 -20.09,-81.21 -2.192,-4.134 -4.544,-8.174 -7.054,-12.102 -6.83,-10.74 -14.827,-20.669 -23.785,-29.636 -5.944,-5.944 -12.317,-11.459 -19.073,-16.498 -0.56,-0.42 -1.12,-0.83 -1.689,-1.231 -28.675,-20.893 -63.975,-33.201 -102.186,-33.201 -48.018,0 -91.464,19.456 -122.948,50.93 -0.737,0.737 -1.465,1.474 -2.174,2.221 -0.55,0.569 -1.101,1.147 -1.633,1.726 -15.545,16.553 -27.881,36.14 -36.018,57.779 -3.098,8.211 -5.58,16.712 -7.409,25.464 -2.417,11.534 -3.686,23.496 -3.686,35.758 0.01,42.326 15.117,81.097 40.246,111.246 -2.072,1.278 -3.975,2.809 -5.534,4.637 -26.174,-31.399 -41.934,-71.822 -41.934,-115.883 0,-18.187 2.678,-35.748 7.67,-52.311 3.359,-11.142 7.754,-21.835 13.092,-31.95 8.528,-16.208 19.446,-30.961 32.276,-43.801 1.251,-1.25 2.529,-2.491 3.817,-3.685 0.662,-0.644 1.334,-1.26 2.006,-1.876 10.862,-9.938 22.945,-18.578 36,-25.661 25.632,-13.913 55.016,-21.816 86.229,-21.816 2.454,0 4.908,0.047 7.334,0.14 36.056,1.446 69.424,13.427 97.054,32.976 0.569,0.392 1.148,0.793 1.698,1.204 7.82,5.655 15.164,11.925 21.966,18.718 7.904,7.904 15.07,16.526 21.406,25.773 2.556,3.723 4.973,7.558 7.25,11.477 15.499,26.697 24.382,57.723 24.382,90.812 C 53.038,-78.055 32.762,-32.762 0,0"
       style="fill:#ffffff;fill-opacity:1;fill-rule:nonzero;stroke:none"
       transform="matrix(1.3333333,0,0,-1.3333333,510.56802,652.36811)"
       clip-path="url(#clipPath21)" />
    <path
       id="path22"
       d="m 0,0 c 0,-37.614 -10.936,-72.681 -29.804,-102.176 -33.741,-52.778 -92.854,-87.76 -160.142,-87.77 -6.559,0 -13.035,0.336 -19.418,0.98 h -0.009 c -16.246,1.661 -31.885,5.356 -46.656,10.843 -45.947,17.048 -83.505,51.368 -104.78,95.075 -12.224,25.092 -19.073,53.272 -19.073,83.048 0,47.85 17.692,91.567 46.899,124.954 0,-0.047 0,-0.093 0.009,-0.14 0.187,-1.67 0.607,-3.201 1.194,-4.6 C -359.288,87.797 -375.869,45.844 -375.869,0 c 0,-24.662 4.805,-48.214 13.53,-69.751 9.424,-23.29 23.44,-44.239 40.926,-61.726 33.649,-33.648 80.118,-54.447 131.467,-54.456 51.35,0.009 97.819,20.808 131.477,54.456 10.329,10.33 19.455,21.873 27.126,34.405 17.337,28.255 27.331,61.492 27.331,97.072 0,51.349 -20.809,97.819 -54.457,131.467 -1.316,1.316 -2.65,2.613 -4.003,3.882 1.138,0.849 2.155,1.726 3.06,2.622 C -22.824,103.361 0,54.345 0,0"
       style="fill:#ffffff;fill-opacity:1;fill-rule:nonzero;stroke:none"
       transform="matrix(1.3333333,0,0,-1.3333333,593.09295,823.09144)"
       clip-path="url(#clipPath23)" />
    <path
       id="path24"
       d="M 0,0 -0.169,-0.292 C 1.43,-0.2 3.091,-0.108 4.798,0 Z"
       style="fill:#ffffff;fill-opacity:1;fill-rule:nonzero;stroke:none"
       transform="matrix(1.3333333,0,0,-1.3333333,233.80828,653.24891)"
       clip-path="url(#clipPath25)" />
    <path
       id="path26"
       d="m 0,0 c -6.336,-9.247 -13.502,-17.869 -21.406,-25.773 -6.802,-6.793 -14.146,-13.063 -21.965,-18.718 -0.551,-0.411 -1.129,-0.812 -1.699,-1.204 -27.629,-19.549 -60.998,-31.53 -97.053,-32.976 -33.247,1.129 -64.852,8.762 -93.564,21.676 -13.054,7.082 -25.138,15.723 -36,25.661 -0.672,0.616 -1.343,1.232 -2.006,1.876 -1.288,1.194 -2.566,2.435 -3.816,3.685 -12.831,12.84 -23.748,27.593 -32.277,43.801 -1.092,7.651 -1.941,15.378 -2.445,23.039 -0.102,1.502 -0.186,3.004 -0.261,4.497 0,0 -2.865,29.795 23.944,36.634 26.827,6.84 65.654,19.745 87.722,50.305 0,0 0.327,-8.38 5.506,-15.779 8.034,-11.422 46.674,-100.46 46.674,-100.46 l 6.121,51.135 -13.978,15.079 -4.553,-1.987 15.228,16.544 c 0,0 8.94,4.218 16.554,-0.653 7.605,-4.899 14.146,-16.153 14.146,-16.153 l -5.879,3.892 -4.227,-12.364 c -0.756,-2.184 -0.83,-4.535 -0.233,-6.784 l 16.796,-62.687 c 0,0 -0.243,87.415 -2.781,111.685 0,0 14.221,-10.367 21.621,-14.454 7.381,-4.078 47.215,-20.407 53.738,-22.395 6.504,-1.987 13.222,-5.841 15.882,-11.916 1.026,-2.351 8.594,-26.939 17.486,-56.229 C -1.829,6.028 -0.914,3.023 0,0"
       style="fill:#ffffff;fill-opacity:1;fill-rule:nonzero;stroke:none"
       transform="matrix(1.3333333,0,0,-1.3333333,539.10895,959.47611)"
       clip-path="url(#clipPath27)" />
    <path
       id="path28"
       d="m 0,0 c 0,0 -3.081,-67.22 -8.64,-90.616 -5.559,-23.397 30.316,0 30.316,0 l 20.9,68.629 z"
       style="fill:#ffffff;fill-opacity:1;fill-rule:nonzero;stroke:none"
       transform="matrix(1.3333333,0,0,-1.3333333,222.65402,747.39184)"
       clip-path="url(#clipPath29)" />
    <path
       id="path30"
       d="M 0,0 -0.169,-0.292 C 1.43,-0.2 3.091,-0.108 4.798,0 Z"
       style="fill:#ffffff;fill-opacity:1;fill-rule:nonzero;stroke:none"
       transform="matrix(1.3333333,0,0,-1.3333333,233.80828,653.24891)"
       clip-path="url(#clipPath31)" />
    <path
       id="path32"
       d="m 0,0 c 0,0 12.178,7.604 15.029,18.355 0,0 36.913,-9.243 52.904,-26.719 C 66.887,-8.091 29.642,2.031 0,0 m -36.152,-5.643 c -26.791,0.404 -31.781,16.05 -34.086,29.523 -0.511,2.958 -3.148,5.073 -6.13,4.883 l -46.275,-4.764 14.922,7.14 c 3.505,1.687 7.164,3.077 10.895,4.17 3.742,1.093 7.556,1.901 11.429,2.376 4.051,0.499 8.542,1.01 13.46,1.509 0,0 6.19,2.459 7.414,-4.479 1.259,-6.926 0.499,-31.864 28.287,-31.103 27.777,0.76 32.612,19.412 32.612,19.412 0,0 3.458,14.471 9.232,14.257 5.263,-0.202 7.27,-6.142 7.853,-10.479 0.142,-1.045 -0.06,-3.54 0.582,-4.324 -0.939,1.152 -2.162,2.032 -3.564,2.554 C 7.604,26.113 3.065,26.945 2.471,21.658 1.616,13.877 -9.599,-6.059 -36.152,-5.643 m 13.306,48.354 9.528,-2.377 c 0,0 -2.388,-17.5 -11.227,-21.979 -0.25,-0.13 4.194,14.281 1.699,24.356 m 59.022,3.041 3.79,-1.687 c 0,0 2.198,-14.209 -3.79,-20.577 0,0 2.174,12.474 0,22.264 m -187.451,35.63 c 12.225,2.067 24.45,4.229 36.664,6.332 l 36.663,6.392 73.303,12.748 c 2.958,0.522 5.774,-1.462 6.285,-4.408 0.522,-2.947 -1.462,-5.762 -4.42,-6.285 -0.119,-0.024 -0.261,-0.036 -0.38,-0.047 H -3.184 L -114.243,85.029 c -12.344,-1.224 -24.676,-2.495 -37.032,-3.647 M 43.97,16.93 c 3.54,4.693 5.215,23.096 5.215,23.096 l 1.497,2.518 v 8.744 C 29.381,61.327 11.869,50.682 11.869,50.682 l -16.491,0.749 c -3.112,0.142 -7.449,2.637 -10.644,3.433 -4.42,1.093 -8.804,2.068 -13.342,2.566 -16.407,1.735 -32.933,0 -49.091,-2.934 -7.021,-1.271 -13.971,-2.851 -20.957,-4.325 -6.701,-1.425 -12.878,-3.908 -19.151,-6.605 -4.313,-1.842 -8.649,-3.659 -12.641,-6.119 -2.436,-1.496 -4.741,-3.243 -6.737,-5.31 -2.126,-2.21 -3.659,-4.859 -5.476,-7.319 -1.545,-2.091 -4.907,-0.463 -4.147,2.032 0.024,0.059 0.048,0.119 0.06,0.154 0.867,2.044 2.221,4.646 3.659,6.345 3.588,4.241 8.958,8.292 13.686,11.12 10.039,6.071 21.48,9.766 32.767,12.985 24.771,7.057 51.442,8.138 77.009,10.55 14.114,1.331 28.43,2.091 42.473,4.016 12.784,1.734 37.935,4.859 36.176,22.882 -1.71,18.129 -59.355,18.712 -59.355,18.712 0,0 -21.943,45.027 -27.372,50.468 -5.418,5.418 -16.503,18.474 -74.254,4.384 -57.739,-14.078 -55.327,-42.259 -55.327,-42.259 l -2.412,-39.622 c 0,0 -43.198,-11.179 -41.832,-23.321 1.391,-12.142 39.171,-12.819 39.171,-12.819 0,0 8.577,0.439 20.696,1.152 l -5.382,-9.683 c -6.749,-12.13 -6.38,-25.258 -8.851,-38.908 -4.277,-23.631 11.963,-52.702 33.978,-62.147 21.1,-9.053 53.949,-13.782 99.012,6.368 11.085,4.954 20.328,13.282 26.66,23.618 l 0.499,0.796 c 22.728,26.125 80.574,9.386 80.574,9.386 C 81.774,1.699 43.97,16.93 43.97,16.93"
       style="fill:#ffffff;fill-opacity:1;fill-rule:nonzero;stroke:none"
       transform="matrix(1.3333333,0,0,-1.3333333,431.42522,739.46864)"
       clip-path="url(#clipPath33)" />
  </g>
</svg>
